<svg xmlns="http://www.w3.org/2000/svg" width="512" height="512" viewBox="0 0 512 512" role="img" aria-label="Stub">
  <defs>
    <linearGradient id="s993mkjoa" x1="0" y1="0" x2="0.55" y2="1">
      <stop offset="0%" stop-color="#4aa8ff"/><stop offset="52%" stop-color="#0a84ff"/>
      <stop offset="100%" stop-color="#0060df"/></linearGradient><linearGradient id="s993mkjob" x1="0" y1="0" x2="0.5" y2="1">
      <stop offset="0%" stop-color="#ffc247"/><stop offset="100%" stop-color="#ff9500"/></linearGradient><linearGradient id="s993mkjoc" x1="0" y1="0" x2="0.5" y2="1">
      <stop offset="0%" stop-color="#ff6482"/><stop offset="100%" stop-color="#ff2d55"/></linearGradient><linearGradient id="s993mkjod" x1="0" y1="0" x2="0.5" y2="1">
      <stop offset="0%" stop-color="#5ce0b0"/><stop offset="100%" stop-color="#00c78c"/></linearGradient><linearGradient id="s993mkjot" x1="0" y1="0" x2="0" y2="1">
      <stop offset="0%" stop-color="#2c2c30"/><stop offset="100%" stop-color="#0e0e10"/></linearGradient>
    
    <mask id="ms993mkjof">
      <rect x="-273.9" y="-93.7" width="1059.8" height="699.5" fill="#000"/>
      <rect x="79.36" y="139.42" width="353.28" height="233.16" rx="25.60" fill="#fff"/>
      <circle cx="284.26" cy="139.42" r="30.31" fill="#000"/>
      <circle cx="284.26" cy="372.58" r="30.31" fill="#000"/>
      <rect x="278.08" y="166.23"
      width="12.36" height="25.65" rx="6.18" fill="#000"/><rect x="278.08" y="217.53"
      width="12.36" height="25.65" rx="6.18" fill="#000"/><rect x="278.08" y="268.82"
      width="12.36" height="25.65" rx="6.18" fill="#000"/><rect x="278.08" y="320.12"
      width="12.36" height="25.65" rx="6.18" fill="#000"/>
    </mask>
  </defs>
  <rect width="512" height="512" rx="115.2" fill="url(#s993mkjot)"/>
  <g transform="rotate(9.50 256.0 256.0)">
        <rect x="79.36" y="114.94" width="353.28" height="233.16"
              rx="25.60" fill="url(#s993mkjod)"/>
      </g><g transform="rotate(2.00 256.0 256.0)">
        <rect x="79.36" y="123.10" width="353.28" height="233.16"
              rx="25.60" fill="url(#s993mkjoc)"/>
      </g><g transform="rotate(-5.50 256.0 256.0)">
        <rect x="79.36" y="131.26" width="353.28" height="233.16"
              rx="25.60" fill="url(#s993mkjob)"/>
      </g>
  <g transform="rotate(-13.00 256.0 256.0)" mask="url(#ms993mkjof)">
      <rect x="79.36" y="139.42" width="353.28" height="233.16" fill="url(#s993mkjoa)"/>
    </g>
  <g transform="rotate(-13 256.0 256.0)">
    <g>
    <rect x="127.37" y="201.55"
    width="54.45" height="54.45" rx="7.26"
    fill="none" stroke="rgba(0,22,50,0.82)" stroke-width="18.15"/><rect x="199.96" y="201.55"
    width="54.45" height="54.45" rx="7.26"
    fill="none" stroke="rgba(0,22,50,0.82)" stroke-width="18.15"/><rect x="127.37" y="274.15"
    width="54.45" height="54.45" rx="7.26"
    fill="none" stroke="rgba(0,22,50,0.82)" stroke-width="18.15"/>
    <rect x="190.89" y="265.07"
      width="18.15" height="18.15" rx="3.27" fill="rgba(0,22,50,0.82)"/><rect x="227.18" y="265.07"
      width="18.15" height="18.15" rx="3.27" fill="rgba(0,22,50,0.82)"/><rect x="190.89" y="301.37"
      width="18.15" height="18.15" rx="3.27" fill="rgba(0,22,50,0.82)"/><rect x="227.18" y="301.37"
      width="18.15" height="18.15" rx="3.27" fill="rgba(0,22,50,0.82)"/><rect x="209.03" y="283.22"
      width="18.15" height="18.15" rx="3.27" fill="rgba(0,22,50,0.82)"/><rect x="172.74" y="210.63"
      width="18.15" height="18.15" rx="3.27" fill="rgba(0,22,50,0.82)"/><rect x="172.74" y="246.93"
      width="18.15" height="18.15" rx="3.27" fill="rgba(0,22,50,0.82)"/><rect x="172.74" y="283.22"
      width="18.15" height="18.15" rx="3.27" fill="rgba(0,22,50,0.82)"/><rect x="136.44" y="246.93"
      width="18.15" height="18.15" rx="3.27" fill="rgba(0,22,50,0.82)"/><rect x="209.03" y="246.93"
      width="18.15" height="18.15" rx="3.27" fill="rgba(0,22,50,0.82)"/>
  </g>
  </g>
</svg>