<svg xmlns="http://www.w3.org/2000/svg" width="141" height="44"
     viewBox="0 0 141 44" role="img" aria-label="Stub">
  <g transform="translate(0, -1.3)">
    <svg xmlns="http://www.w3.org/2000/svg" width="46.64" height="46.64" viewBox="0 0 46.64 46.64" role="img" aria-label="Stub">
  <defs>
    <mask id="s0o75s1z">
      <rect width="46.64" height="46.64" fill="#000"/>
      <rect x="2.8" y="11.3" width="34.5" height="24.1" rx="2.3" fill="#fff"/>
      <circle cx="24.2" cy="11.3" r="2.9" fill="#000"/>
      <circle cx="24.2" cy="35.4" r="2.9" fill="#000"/>
      <rect x="23.5" y="14.1"
        width="1.4" height="2.9" rx="0.7" fill="#000"/><rect x="23.5" y="19.7"
        width="1.4" height="2.9" rx="0.7" fill="#000"/><rect x="23.5" y="25.3"
        width="1.4" height="2.9" rx="0.7" fill="#000"/><rect x="23.5" y="30.8"
        width="1.4" height="2.9" rx="0.7" fill="#000"/>
    </mask>
  </defs>
  <rect width="46.64" height="46.64" rx="10.5" fill="#1c1c1e"/>
  <rect x="6.7" y="11.3"
      width="34.5" height="24.1" rx="2.3" fill="#ff375f"/><rect x="5.4" y="11.3"
      width="34.5" height="24.1" rx="2.3" fill="#40c8e0"/><rect x="4.1" y="11.3"
      width="34.5" height="24.1" rx="2.3" fill="#ff9f0a"/>
  <rect width="46.64" height="46.64" fill="#0a84ff" mask="url(#s0o75s1z)"/>
</svg>
  </g>
  <text x="58.1" y="31.7"
        font-family="-apple-system, BlinkMacSystemFont, 'SF Pro Display', 'Segoe UI', Roboto, sans-serif"
        font-size="37.8" font-weight="680"
        letter-spacing="-1.32"
        fill="currentColor">Stub</text>
</svg>